<svg xmlns="http://www.w3.org/2000/svg" viewBox="0 0 512 512" width="22pt" height="22pt" style="enable-background:new 0 0 512 512" xml:space="preserve"><path style="fill:#ffc865" d="M512 289.391v189.217C512 497.051 497.051 512 478.609 512H33.391C14.949 512 0 497.051 0 478.609V167.652l33.478 2.093c24.08 1.505 44.435-17.618 44.435-41.745 0-24.126-20.355-43.25-44.435-41.745L0 88.348V33.391C0 14.949 14.949 0 33.391 0h189.217C241.051 0 256 14.949 256 33.391V256h88.348l-2.093-33.478c-1.505-24.08 17.618-44.435 41.745-44.435 24.126 0 43.25 20.355 41.745 44.435L423.652 256h54.957C497.051 256 512 270.949 512 289.391z"/><path style="fill:#80bda2" d="M512 289.391v189.217C512 497.05 497.051 512 478.609 512H33.391C14.949 512 0 497.05 0 478.609V256h88.348l-2.093 33.478c-1.505 24.078 17.618 44.435 41.745 44.435 24.126 0 43.25-20.356 41.745-44.435L167.652 256h176.696l-2.093-33.478c-1.505-24.078 17.618-44.435 41.745-44.435 24.126 0 43.25 20.356 41.745 44.435L423.652 256h54.957C497.051 256 512 270.95 512 289.391z"/><path style="fill:#db5e49" d="M256 423.652V512H33.391C14.949 512 0 497.05 0 478.609V256h88.348l-2.093 33.478c-1.505 24.078 17.618 44.435 41.745 44.435s43.25-20.356 41.745-44.435L167.652 256H256v88.348l33.478-2.093c24.078-1.505 44.435 17.618 44.435 41.745 0 24.126-20.356 43.25-44.435 41.745L256 423.652z"/><path style="fill:#fff" d="M222.609 175.861v2.226c0 6.147-4.983 11.13-11.13 11.13-6.147 0-11.13-4.983-11.13-11.13v-2.226c0-6.147 4.983-11.13 11.13-11.13 6.147-.001 11.13 4.983 11.13 11.13zm-33.392-142.47h-33.391c-6.147 0-11.13 4.983-11.13 11.13s4.983 11.13 11.13 11.13h33.391c6.137 0 11.13 4.993 11.13 11.13v55.652c0 6.147 4.983 11.13 11.13 11.13 6.147 0 11.13-4.983 11.13-11.13v-55.65c.002-18.412-14.978-33.392-33.39-33.392zm278.261 289.392c-6.147 0-11.13 4.983-11.13 11.13v2.226c0 6.147 4.983 11.13 11.13 11.13s11.13-4.983 11.13-11.13v-2.226c.001-6.147-4.982-11.13-11.13-11.13zm0 55.652c-6.147 0-11.13 4.983-11.13 11.13v55.652c0 6.137-4.993 11.13-11.13 11.13h-33.391c-6.147 0-11.13 4.983-11.13 11.13s4.983 11.13 11.13 11.13h33.391c18.412 0 33.391-14.979 33.391-33.391v-55.652c0-6.146-4.983-11.129-11.131-11.129zm-333.913 77.913H66.783c-6.137 0-11.13-4.993-11.13-11.13v-44.522c0-6.147-4.983-11.13-11.13-11.13s-11.13 4.983-11.13 11.13v44.522c0 18.412 14.979 33.391 33.391 33.391h66.783c6.147 0 11.13-4.983 11.13-11.13s-4.984-11.131-11.132-11.131zm55.652 0h-2.226c-6.147 0-11.13 4.983-11.13 11.13s4.983 11.13 11.13 11.13h2.226c6.147 0 11.13-4.983 11.13-11.13s-4.982-11.13-11.13-11.13z"/></svg>